<svg width="80" height="38" viewBox="0 0 80 38" fill="none" xmlns="http://www.w3.org/2000/svg">
<path d="M0.577584 33.8206V34.9447H1.09219C1.28113 34.9447 1.42303 34.8885 1.5179 34.7765C1.61237 34.6645 1.65981 34.5278 1.65981 34.3667C1.65981 34.1778 1.60281 34.0395 1.4892 33.9518C1.3756 33.8641 1.22373 33.8206 1.03479 33.8206H0.577983H0.577584ZM0.577584 35.433V36.5886H1.11331C1.21496 36.5886 1.31023 36.5762 1.39952 36.5519C1.4888 36.5276 1.56653 36.4913 1.6331 36.4443C1.69967 36.3973 1.75189 36.3367 1.79055 36.2633C1.82922 36.1896 1.84835 36.1039 1.84835 36.0058C1.84835 35.897 1.82563 35.8073 1.77979 35.7352C1.73435 35.6634 1.67416 35.6048 1.59882 35.559C1.52348 35.5135 1.43778 35.4809 1.34132 35.4617C1.24525 35.4426 1.146 35.433 1.04475 35.433H0.577186H0.577584ZM0 37.1084V33.3005H1.00848C1.19423 33.3005 1.36205 33.3188 1.51272 33.3559C1.66339 33.3925 1.79095 33.4503 1.89618 33.5289C2.00142 33.6078 2.08273 33.7094 2.14053 33.8334C2.19833 33.9578 2.22703 34.1092 2.22703 34.2878C2.22703 34.3859 2.21746 34.4819 2.19833 34.5764C2.17919 34.6709 2.1477 34.7578 2.10386 34.8363C2.06001 34.9152 2.00221 34.9842 1.93046 35.044C1.85871 35.1034 1.77022 35.1492 1.66499 35.1803C1.75627 35.1978 1.84636 35.2277 1.93564 35.2696C2.02493 35.3114 2.10465 35.3684 2.17441 35.4402C2.24457 35.5119 2.30117 35.6004 2.34502 35.7057C2.38886 35.8105 2.41079 35.9349 2.41079 36.0788C2.41079 36.2609 2.37571 36.4168 2.30595 36.5463C2.2358 36.6759 2.14292 36.7827 2.02772 36.8668C1.91213 36.9509 1.77899 37.0123 1.62872 37.0506C1.47804 37.0892 1.32219 37.1084 1.16115 37.1084H0.000398609H0ZM4.55889 35.207C4.55889 34.9443 4.60991 34.6948 4.71116 34.4588C4.8128 34.2224 4.95192 34.0152 5.1289 33.8362C5.30588 33.6576 5.51156 33.5165 5.74595 33.4133C5.98073 33.31 6.23265 33.2582 6.50251 33.2582C6.76838 33.2582 7.0199 33.31 7.25628 33.4133C7.49265 33.5165 7.69913 33.6576 7.87611 33.8362C8.05309 34.0148 8.19301 34.222 8.29625 34.4588C8.39949 34.6952 8.45131 34.9447 8.45131 35.207C8.45131 35.4769 8.39949 35.7288 8.29625 35.9636C8.19301 36.198 8.05309 36.4036 7.87611 36.5806C7.69913 36.7572 7.49265 36.8967 7.25628 36.9984C7.0199 37.1 6.76878 37.1506 6.50251 37.1506C6.23265 37.1506 5.98073 37.1 5.74595 36.9984C5.51156 36.8967 5.30588 36.7576 5.1289 36.5806C4.95232 36.4036 4.8128 36.198 4.71116 35.9636C4.60991 35.7288 4.55889 35.4769 4.55889 35.207ZM5.13129 35.2122C5.13129 35.4047 5.16717 35.5861 5.23892 35.7559C5.31067 35.9257 5.40952 36.0736 5.53548 36.1995C5.66144 36.3259 5.80853 36.4256 5.97674 36.4989C6.14495 36.5726 6.32353 36.6093 6.51247 36.6093C6.70141 36.6093 6.87919 36.5726 7.04541 36.4989C7.21163 36.4256 7.35712 36.3259 7.48109 36.1995C7.60546 36.0736 7.70351 35.9257 7.77526 35.7559C7.84701 35.5861 7.88289 35.4031 7.88289 35.207C7.88289 35.0145 7.84701 34.8335 7.77526 34.6633C7.70351 34.4935 7.60466 34.3456 7.4787 34.2197C7.35234 34.0937 7.20645 33.994 7.04023 33.9203C6.87401 33.8466 6.69623 33.8099 6.50729 33.8099C6.31835 33.8099 6.13977 33.8466 5.97156 33.9203C5.80335 33.994 5.65746 34.0937 5.53309 34.2197C5.40872 34.346 5.31067 34.4947 5.23892 34.6661C5.16717 34.8375 5.13129 35.0197 5.13129 35.2122ZM10.5568 35.207C10.5568 34.9443 10.6078 34.6948 10.709 34.4588C10.8107 34.2224 10.9498 34.0152 11.1268 33.8362C11.3038 33.6576 11.5094 33.5165 11.7438 33.4133C11.9786 33.31 12.2305 33.2582 12.5004 33.2582C12.7662 33.2582 13.0178 33.31 13.2541 33.4133C13.4905 33.5165 13.697 33.6576 13.874 33.8362C14.051 34.0148 14.1909 34.222 14.2941 34.4588C14.3974 34.6952 14.4492 34.9447 14.4492 35.207C14.4492 35.4769 14.3974 35.7288 14.2941 35.9636C14.1909 36.198 14.051 36.4036 13.874 36.5806C13.697 36.7572 13.4905 36.8967 13.2541 36.9984C13.0178 37.1 12.7666 37.1506 12.5004 37.1506C12.2305 37.1506 11.9786 37.1 11.7438 36.9984C11.5094 36.8967 11.3038 36.7576 11.1268 36.5806C10.9502 36.4036 10.8107 36.198 10.709 35.9636C10.6078 35.7288 10.5568 35.4769 10.5568 35.207ZM11.1292 35.2122C11.1292 35.4047 11.165 35.5861 11.2368 35.7559C11.3085 35.9257 11.4074 36.0736 11.5333 36.1995C11.6593 36.3259 11.8064 36.4256 11.9746 36.4989C12.1428 36.5726 12.3214 36.6093 12.5103 36.6093C12.6993 36.6093 12.8771 36.5726 13.0433 36.4989C13.2095 36.4256 13.355 36.3259 13.479 36.1995C13.6033 36.0736 13.7014 35.9257 13.7731 35.7559C13.8449 35.5861 13.8808 35.4031 13.8808 35.207C13.8808 35.0145 13.8449 34.8335 13.7731 34.6633C13.7014 34.4935 13.6025 34.3456 13.4766 34.2197C13.3502 34.0937 13.2043 33.994 13.0381 33.9203C12.8719 33.8466 12.6941 33.8099 12.5052 33.8099C12.3162 33.8099 12.1376 33.8466 11.9694 33.9203C11.8012 33.994 11.6553 34.0937 11.531 34.2197C11.4066 34.346 11.3085 34.4947 11.2368 34.6661C11.165 34.8375 11.1292 35.0197 11.1292 35.2122ZM19.081 37.1084C18.9586 36.9509 18.841 36.8003 18.729 36.6568C18.617 36.5133 18.5066 36.3698 18.3982 36.2263C18.2894 36.0828 18.1802 35.9377 18.0701 35.7906C17.9597 35.6435 17.8433 35.4912 17.721 35.3338C17.6755 35.3828 17.6317 35.4274 17.5898 35.4677C17.548 35.508 17.5021 35.549 17.4535 35.5913C17.4535 35.8607 17.4543 36.1138 17.4559 36.3502C17.4575 36.5866 17.4587 36.8397 17.4587 37.1092H16.8233V33.3013H17.4587V34.7247C17.4587 34.7562 17.4559 34.7869 17.4507 34.8168C17.4455 34.8467 17.4427 34.8774 17.4427 34.9085C17.4603 34.8841 17.4778 34.8622 17.4953 34.8427C17.5129 34.8235 17.5304 34.7996 17.548 34.7717C17.7967 34.5369 18.0363 34.293 18.2674 34.0391C18.4986 33.7852 18.7382 33.5392 18.9869 33.3013H19.7168C19.4541 33.5743 19.1942 33.8493 18.9367 34.126C18.6792 34.4026 18.4193 34.6773 18.1566 34.9503C18.3037 35.1392 18.4448 35.3226 18.5796 35.4992C18.7143 35.6762 18.8474 35.852 18.9786 36.0269C19.1097 36.2019 19.242 36.3789 19.3752 36.5575C19.5083 36.7361 19.6466 36.9198 19.7901 37.1092H19.081V37.1084ZM26.5972 35.8532V37.1084H26.0196V35.8532C25.9953 35.8145 25.947 35.7308 25.8753 35.6012C25.8035 35.4717 25.7194 35.3186 25.6234 35.1416C25.5269 34.9647 25.4237 34.7765 25.3133 34.5768C25.2028 34.3771 25.0996 34.189 25.0035 34.0124C24.9075 33.8354 24.823 33.6823 24.7512 33.5528C24.6795 33.4232 24.6312 33.3391 24.6069 33.3005H25.2582C25.2897 33.3531 25.3459 33.4539 25.4265 33.6026C25.507 33.7513 25.5963 33.9195 25.6943 34.1068C25.7924 34.2942 25.892 34.4831 25.9937 34.6741C26.0953 34.8646 26.181 35.0284 26.2512 35.1652L26.309 35.3386C26.3229 35.3106 26.3353 35.2816 26.3457 35.2521C26.3564 35.2222 26.3668 35.1935 26.3771 35.1656C26.4509 35.0292 26.5366 34.8654 26.6346 34.6745C26.7327 34.4835 26.83 34.2946 26.926 34.1072C27.0221 33.9199 27.1098 33.7517 27.1887 33.603C27.2672 33.4543 27.3226 33.3535 27.3541 33.3009H28.0003L26.598 35.8536L26.5972 35.8532ZM29.7115 35.207C29.7115 34.9443 29.7625 34.6948 29.8638 34.4588C29.9654 34.2224 30.1045 34.0152 30.2815 33.8362C30.4585 33.6576 30.6642 33.5165 30.8986 33.4133C31.1333 33.31 31.3853 33.2582 31.6551 33.2582C31.921 33.2582 32.1725 33.31 32.4089 33.4133C32.6453 33.5165 32.8517 33.6576 33.0287 33.8362C33.2057 34.0148 33.3456 34.222 33.4489 34.4588C33.5521 34.6952 33.6039 34.9447 33.6039 35.207C33.6039 35.4769 33.5521 35.7288 33.4489 35.9636C33.3456 36.198 33.2057 36.4036 33.0287 36.5806C32.8517 36.7572 32.6453 36.8967 32.4089 36.9984C32.1725 37.1 31.9214 37.1506 31.6551 37.1506C31.3853 37.1506 31.1333 37.1 30.8986 36.9984C30.6642 36.8967 30.4585 36.7576 30.2815 36.5806C30.1049 36.4036 29.9654 36.198 29.8638 35.9636C29.7625 35.7288 29.7115 35.4769 29.7115 35.207ZM30.2839 35.2122C30.2839 35.4047 30.3198 35.5861 30.3915 35.7559C30.4633 35.9257 30.5621 36.0736 30.6881 36.1995C30.8141 36.3259 30.9611 36.4256 31.1294 36.4989C31.2976 36.5726 31.4761 36.6093 31.6651 36.6093C31.854 36.6093 32.0318 36.5726 32.198 36.4989C32.3643 36.4256 32.5097 36.3259 32.6337 36.1995C32.7581 36.0736 32.8561 35.9257 32.9279 35.7559C32.9996 35.5861 33.0355 35.4031 33.0355 35.207C33.0355 35.0145 32.9996 34.8335 32.9279 34.6633C32.8561 34.4935 32.7573 34.3456 32.6313 34.2197C32.505 34.0937 32.3591 33.994 32.1928 33.9203C32.0266 33.8466 31.8488 33.8099 31.6599 33.8099C31.471 33.8099 31.2924 33.8466 31.1242 33.9203C30.956 33.994 30.8101 34.0937 30.6857 34.2197C30.5613 34.346 30.4633 34.4947 30.3915 34.6661C30.3198 34.8375 30.2839 35.0197 30.2839 35.2122ZM37.3847 37.1502C37.1814 37.1502 36.9925 37.1167 36.8175 37.0506C36.6425 36.984 36.4895 36.8903 36.3579 36.7696C36.2268 36.6488 36.1231 36.5033 36.0478 36.3335C35.9725 36.1637 35.935 35.9735 35.935 35.7635V33.3001H36.5126V35.7475C36.5126 35.8699 36.5345 35.9831 36.5783 36.0863C36.6218 36.1896 36.6832 36.2809 36.7621 36.3594C36.8406 36.4383 36.9327 36.4993 37.0375 36.5431C37.1428 36.587 37.2584 36.6089 37.3843 36.6089C37.5071 36.6089 37.6215 36.587 37.7283 36.5431C37.8352 36.4993 37.928 36.4383 38.0066 36.3594C38.0851 36.2809 38.1473 36.1896 38.1931 36.0863C38.2385 35.9831 38.2613 35.8703 38.2613 35.7475V33.3001H38.8389V35.7635C38.8389 35.9735 38.8014 36.1637 38.726 36.3335C38.6507 36.5033 38.5475 36.6488 38.4159 36.7696C38.2848 36.8903 38.1305 36.984 37.9539 37.0506C37.777 37.1171 37.5872 37.1502 37.3839 37.1502H37.3847ZM41.4394 37.1084V33.3005H42.4793C42.679 33.3005 42.862 33.3268 43.0282 33.3794C43.1945 33.432 43.338 33.5097 43.4587 33.613C43.5795 33.7162 43.6732 33.8422 43.7397 33.9909C43.8063 34.1395 43.8394 34.3105 43.8394 34.5031C43.8394 34.6079 43.829 34.7123 43.8079 34.8156C43.7868 34.9188 43.7529 35.0189 43.7055 35.1149C43.6584 35.211 43.5978 35.3007 43.5245 35.3828C43.4508 35.4649 43.3615 35.5343 43.2566 35.5905C43.3965 35.8109 43.5488 36.0553 43.7134 36.3231C43.8781 36.591 44.0443 36.8529 44.2125 37.1084H43.5245C43.4543 37 43.3818 36.886 43.3065 36.7672C43.2311 36.648 43.1558 36.53 43.0808 36.4124C43.0055 36.2952 42.9322 36.1796 42.86 36.066C42.7883 35.9524 42.7209 35.8464 42.6579 35.7483H42.5527H42.017V37.1088H41.4394V37.1084ZM42.017 35.207H42.5371C42.6771 35.207 42.7946 35.1835 42.8891 35.1361C42.9836 35.089 43.0581 35.0304 43.1123 34.9603C43.1665 34.8901 43.2052 34.8148 43.2279 34.7343C43.2507 34.6537 43.2618 34.5804 43.2618 34.5138C43.2618 34.4473 43.2507 34.3747 43.2279 34.2958C43.2052 34.2169 43.1658 34.1435 43.1095 34.075C43.0533 34.0068 42.9792 33.9498 42.8863 33.9044C42.7935 33.8589 42.6787 33.8362 42.5423 33.8362H42.017V35.207ZM51.7494 33.5105L51.5445 33.9781C51.401 33.9255 51.2583 33.8836 51.1164 33.8521C50.9745 33.8206 50.839 33.8047 50.7094 33.8047C50.4886 33.8047 50.3128 33.8501 50.1817 33.9414C50.0505 34.0323 49.9848 34.1479 49.9848 34.2882C49.9848 34.407 50.0318 34.5027 50.1267 34.5744C50.2211 34.6462 50.3383 34.7107 50.4786 34.7685C50.6185 34.8263 50.7712 34.8841 50.9354 34.9419C51.1001 34.9997 51.2523 35.0743 51.3922 35.1652C51.5326 35.2564 51.6497 35.3708 51.7442 35.5092C51.8387 35.6475 51.8861 35.8253 51.8861 36.0421C51.8861 36.2103 51.8554 36.3618 51.794 36.4965C51.7331 36.6312 51.6418 36.7476 51.521 36.8457C51.4002 36.9437 51.2495 37.0191 51.0694 37.0717C50.8888 37.1243 50.6779 37.1502 50.4364 37.1502C50.2825 37.1502 50.143 37.1399 50.0186 37.1187C49.8943 37.0976 49.7823 37.0705 49.6826 37.0374C49.583 37.0039 49.4953 36.9685 49.4199 36.9298C49.3446 36.8911 49.2808 36.8565 49.2282 36.825L49.4805 36.3259C49.6204 36.4064 49.7763 36.471 49.9481 36.52C50.1195 36.5691 50.2753 36.5938 50.4156 36.5938C50.4858 36.5938 50.5723 36.585 50.6755 36.5675C50.7788 36.5499 50.8776 36.5192 50.9725 36.4754C51.067 36.4315 51.1483 36.3729 51.2169 36.2992C51.285 36.2255 51.3193 36.133 51.3193 36.021C51.3193 35.9193 51.2922 35.8328 51.238 35.7611C51.1838 35.6893 51.112 35.6263 51.0227 35.5721C50.9334 35.5179 50.8322 35.4689 50.7182 35.425C50.6046 35.3812 50.4878 35.3358 50.369 35.2887C50.2498 35.2413 50.1334 35.1915 50.0198 35.1388C49.9062 35.0862 49.8046 35.0225 49.7153 34.9471C49.626 34.8718 49.5543 34.7841 49.5 34.6844C49.4458 34.5848 49.4187 34.4648 49.4187 34.3245C49.4187 34.1949 49.445 34.067 49.4977 33.941C49.5503 33.8147 49.6288 33.7027 49.734 33.605C49.8393 33.5069 49.9696 33.428 50.1255 33.3686C50.2813 33.3092 50.4623 33.2793 50.6692 33.2793C50.7951 33.2793 50.9187 33.2897 51.0395 33.3108C51.1602 33.332 51.2699 33.3555 51.3675 33.3818C51.4656 33.4081 51.5489 33.4332 51.6171 33.4579C51.6852 33.4826 51.7299 33.4998 51.751 33.5105H51.7494ZM54.2439 37.1084V33.3005H56.744V33.8206H54.8219V34.9344H56.5343V35.4649H54.8219V36.5782H56.8177V37.1088H54.2443L54.2439 37.1084ZM59.1914 37.1084V33.3005H60.2314C60.4311 33.3005 60.6141 33.3268 60.7803 33.3794C60.9465 33.432 61.09 33.5097 61.2108 33.613C61.3316 33.7162 61.4252 33.8422 61.4918 33.9909C61.5584 34.1395 61.5914 34.3105 61.5914 34.5031C61.5914 34.6079 61.5811 34.7123 61.56 34.8156C61.5388 34.9188 61.505 35.0189 61.4575 35.1149C61.4105 35.211 61.3499 35.3007 61.2765 35.3828C61.2028 35.4649 61.1135 35.5343 61.0087 35.5905C61.1486 35.8109 61.3009 36.0553 61.4655 36.3231C61.6301 36.591 61.7963 36.8529 61.9645 37.1084H61.2765C61.2064 37 61.1338 36.886 61.0585 36.7672C60.9832 36.648 60.9078 36.53 60.8329 36.4124C60.7576 36.2952 60.6842 36.1796 60.6121 36.066C60.5403 35.9524 60.4729 35.8464 60.41 35.7483H60.3047H59.769V37.1088H59.1914V37.1084ZM59.769 35.207H60.2892C60.4291 35.207 60.5467 35.1835 60.6412 35.1361C60.7356 35.089 60.8102 35.0304 60.8644 34.9603C60.9186 34.8901 60.9573 34.8148 60.98 34.7343C61.0027 34.6537 61.0139 34.5804 61.0139 34.5138C61.0139 34.4473 61.0027 34.3747 60.98 34.2958C60.9573 34.2169 60.9178 34.1435 60.8616 34.075C60.8054 34.0068 60.7312 33.9498 60.6384 33.9044C60.5455 33.8589 60.4307 33.8362 60.2944 33.8362H59.769V35.207ZM64.1493 33.3005C64.1736 33.3599 64.2139 33.4571 64.2701 33.5918C64.3263 33.7266 64.3901 33.88 64.4618 34.0514C64.5336 34.2228 64.6089 34.405 64.6874 34.5975C64.7664 34.7901 64.8409 34.9722 64.9107 35.1436C64.9808 35.315 65.0438 35.4685 65.0996 35.6032C65.1558 35.738 65.1961 35.8352 65.2204 35.8946C65.224 35.9014 65.2327 35.9261 65.2467 35.968C65.2606 36.0098 65.2714 36.0469 65.2782 36.0784L65.3308 35.8946C65.3555 35.8352 65.3958 35.738 65.4516 35.6032C65.5078 35.4685 65.5708 35.315 65.6405 35.1436C65.7107 34.9722 65.7848 34.7901 65.8637 34.5975C65.9427 34.405 66.018 34.2228 66.0897 34.0514C66.1615 33.88 66.2253 33.7266 66.2815 33.5918C66.3377 33.4571 66.3775 33.3599 66.4023 33.3005H66.9695C66.9483 33.3495 66.9109 33.438 66.8567 33.5659C66.8025 33.6939 66.7367 33.8486 66.6598 34.0307C66.5828 34.2129 66.4979 34.4126 66.405 34.6294C66.3122 34.8467 66.2177 35.0671 66.1212 35.2911C66.0252 35.5151 65.9307 35.736 65.8378 35.9528C65.7449 36.1696 65.6608 36.3694 65.5859 36.5515C65.5106 36.7337 65.4456 36.8883 65.3914 37.0163C65.3372 37.1443 65.2997 37.2323 65.2786 37.2818L63.5821 33.3005H64.1493ZM69.1543 33.3005H69.7271V37.1084H69.1543V33.3005ZM75.1944 36.8353C75.1521 36.8668 75.0935 36.9011 75.0182 36.9378C74.9428 36.9744 74.8544 37.0087 74.7527 37.0402C74.6511 37.0717 74.5383 37.098 74.4139 37.1187C74.2895 37.1399 74.1576 37.1502 74.0173 37.1502C73.7195 37.1502 73.4525 37.0988 73.2161 36.9952C72.9797 36.8919 72.7792 36.7528 72.6146 36.5774C72.45 36.4024 72.324 36.1991 72.2367 35.968C72.149 35.7372 72.1056 35.492 72.1056 35.2329C72.1056 34.9459 72.157 34.6812 72.2606 34.4397C72.3638 34.1981 72.505 33.9897 72.6831 33.8147C72.8617 33.6397 73.071 33.503 73.3109 33.4049C73.5509 33.3068 73.8056 33.2578 74.0751 33.2578C74.1767 33.2578 74.28 33.265 74.3852 33.2789C74.4904 33.2929 74.5893 33.312 74.6818 33.3367C74.7746 33.3611 74.8568 33.3902 74.9285 33.4232C75.0003 33.4563 75.0553 33.4906 75.0939 33.5257C75.066 33.5675 75.0441 33.6026 75.0282 33.6305C75.0122 33.6584 74.9959 33.6875 74.9783 33.717C74.9608 33.7469 74.9417 33.7808 74.9205 33.8195C74.8994 33.8581 74.8715 33.9087 74.8364 33.9717C74.791 33.9402 74.7376 33.9139 74.6762 33.8928C74.6148 33.8717 74.551 33.8541 74.4845 33.8402C74.4179 33.8262 74.3505 33.8155 74.2824 33.8087C74.2142 33.8015 74.152 33.7983 74.0958 33.7983C73.8925 33.7983 73.7044 33.8358 73.531 33.9111C73.3576 33.9865 73.2081 34.0877 73.0821 34.2157C72.9558 34.3436 72.8569 34.4915 72.7852 34.6597C72.7134 34.8279 72.6776 35.0029 72.6776 35.1847C72.6776 35.3633 72.7114 35.5351 72.78 35.6993C72.8482 35.8639 72.9426 36.011 73.0634 36.1406C73.1842 36.2701 73.3293 36.3733 73.4995 36.4507C73.6693 36.5276 73.8558 36.5663 74.0587 36.5663C74.1672 36.5663 74.2724 36.5555 74.374 36.5348C74.4757 36.5137 74.5674 36.4893 74.6495 36.461C74.732 36.4331 74.8001 36.4048 74.8544 36.3769C74.9086 36.349 74.9409 36.3279 74.9516 36.3139L75.1932 36.8341L75.1944 36.8353ZM77.4262 37.1084V33.3005H79.9263V33.8206H78.0042V34.9344H79.7166V35.4649H78.0042V36.5782H80V37.1088H77.4266L77.4262 37.1084Z" fill="#4D4D4D"/>
<path d="M6.2179 26.3493C5.28755 26.3493 4.4397 26.1667 3.67438 25.8016C2.90865 25.4365 2.25533 24.9565 1.71362 24.3618C1.17191 23.7671 0.750979 23.0871 0.450428 22.3213C0.149877 21.556 0 20.7668 0 19.9544C0 19.1301 0.155856 18.3352 0.467967 17.5699C0.780077 16.8046 1.21576 16.1301 1.775 15.5474C2.33425 14.9646 2.99674 14.4994 3.76247 14.1518C4.5278 13.8043 5.36408 13.6309 6.27091 13.6309C7.20127 13.6309 8.04911 13.8134 8.81444 14.1785C9.58016 14.5437 10.2335 15.0264 10.7752 15.6271C11.3169 16.2278 11.735 16.9106 12.0292 17.6759C12.3238 18.4413 12.4709 19.2186 12.4709 20.0078C12.4709 20.8321 12.315 21.627 12.0029 22.3923C11.6908 23.1576 11.2583 23.8321 10.7046 24.4148C10.1514 24.9976 9.49167 25.466 8.72634 25.8191C7.96102 26.1723 7.12473 26.3489 6.2179 26.3489V26.3493ZM2.9501 19.9903C2.9501 20.473 3.02066 20.9413 3.16216 21.3946C3.30367 21.8478 3.51254 22.2512 3.78918 22.6043C4.06581 22.9575 4.41021 23.2401 4.82237 23.4522C5.23453 23.6642 5.70569 23.7703 6.23544 23.7703C6.78871 23.7703 7.27182 23.6583 7.68398 23.4346C8.09614 23.211 8.43775 22.9192 8.70841 22.5601C8.97946 22.2009 9.18235 21.7948 9.31788 21.3412C9.45341 20.8879 9.52117 20.4255 9.52117 19.9544C9.52117 19.4717 9.45062 19.0037 9.30911 18.5501C9.1676 18.0965 8.95594 17.6963 8.67333 17.3487C8.39072 17.0011 8.04632 16.7245 7.64014 16.5184C7.23395 16.3123 6.76559 16.2095 6.23584 16.2095C5.68257 16.2095 5.20264 16.3183 4.79606 16.5363C4.38988 16.7544 4.04827 17.0398 3.77164 17.3929C3.495 17.7461 3.28892 18.1495 3.15339 18.6027C3.01787 19.0559 2.9501 19.5183 2.9501 19.9895V19.9903ZM13.9904 27.6388C14.226 27.7213 14.4468 27.7803 14.6529 27.8154C14.8589 27.8508 15.0443 27.8684 15.2093 27.8684C15.5509 27.8684 15.816 27.7508 16.0041 27.5152C16.1927 27.2796 16.3633 26.8559 16.5164 26.2432L12.9835 16.9696H15.8981L18.053 23.8233L19.9077 16.9696H22.5573L19.0244 27.7448C18.7773 28.5101 18.3356 29.1316 17.6994 29.6083C17.0636 30.0854 16.3099 30.3238 15.4385 30.3238C15.2029 30.3238 14.9646 30.3031 14.723 30.262C14.4819 30.2206 14.2375 30.1532 13.99 30.0587V27.6388H13.9904ZM27.7862 26.4198C27.0089 26.4198 26.3114 26.2935 25.6931 26.04C25.0749 25.7868 24.5507 25.4424 24.121 25.0068C23.6913 24.5711 23.3645 24.0676 23.1404 23.4964C22.9168 22.9252 22.8048 22.3277 22.8048 21.7035C22.8048 21.0322 22.9168 20.3992 23.1404 19.8045C23.3641 19.2098 23.6881 18.6888 24.1122 18.2412C24.536 17.7935 25.0573 17.4404 25.6756 17.1813C26.2938 16.9222 26.9974 16.7926 27.7866 16.7926C28.5755 16.7926 29.2762 16.9222 29.8885 17.1813C30.5007 17.4404 31.0189 17.7907 31.4431 18.232C31.8672 18.6737 32.1881 19.1831 32.4057 19.7599C32.6237 20.3371 32.7326 20.9433 32.7326 21.5791C32.7326 21.7437 32.7266 21.906 32.715 22.065C32.7031 22.2241 32.6855 22.3624 32.662 22.48H25.8083C25.8554 23.1042 26.0822 23.5781 26.4884 23.9022C26.8945 24.2259 27.3569 24.3877 27.8751 24.3877C28.2873 24.3877 28.6847 24.2877 29.0674 24.0876C29.45 23.8875 29.7063 23.6164 29.8359 23.2748L32.2383 23.9461C31.8732 24.6763 31.3079 25.271 30.5422 25.7302C29.7769 26.1894 28.8581 26.419 27.7866 26.419L27.7862 26.4198ZM29.747 20.7321C29.688 20.1433 29.4763 19.6782 29.1112 19.3365C28.7461 18.9949 28.2929 18.8243 27.7511 18.8243C27.1979 18.8243 26.7415 18.9981 26.3823 19.3453C26.0232 19.6925 25.8143 20.1549 25.7553 20.7317H29.7474L29.747 20.7321Z" fill="#FF9D00"/>
<path d="M50.3203 27.7503C49.2229 27.7503 48.3934 27.4083 47.8313 26.7243C47.2693 26.0403 46.9883 25.0346 46.9883 23.7068V16.8795H50.2393V22.9953C50.2393 23.6455 50.3681 24.1433 50.6252 24.4889C50.8827 24.8341 51.2482 25.0071 51.7226 25.0071C52.1558 25.0071 52.576 24.8919 52.9822 24.6615C53.3883 24.4311 53.7475 24.0317 54.0592 23.4629V16.8795H57.3103V23.8894C57.3103 24.2143 57.3613 24.4415 57.4625 24.5702C57.5642 24.699 57.7435 24.7767 58.001 24.8038V27.547C57.6897 27.6148 57.4255 27.6587 57.2086 27.679C56.9918 27.6993 56.7957 27.7097 56.6195 27.7097C55.4543 27.7097 54.7906 27.2557 54.628 26.348L54.567 25.6979C54.0791 26.4022 53.4732 26.9204 52.7482 27.2525C52.0235 27.5845 51.2139 27.7503 50.3199 27.7503H50.3203ZM64.0356 27.7503C63.128 27.7503 62.2339 27.6048 61.3533 27.3135C60.4728 27.0221 59.7278 26.5987 59.1183 26.0435L60.2767 24.052C60.9268 24.4989 61.5602 24.8445 62.1765 25.088C62.7927 25.332 63.3855 25.4539 63.9543 25.4539C64.374 25.4539 64.6993 25.3794 64.9297 25.2303C65.1601 25.0812 65.2753 24.8648 65.2753 24.5802C65.2753 24.2956 65.1298 24.0688 64.8384 23.8994C64.547 23.73 64.036 23.5506 63.3041 23.3609C62.5862 23.1576 61.98 22.9614 61.4853 22.7717C60.991 22.582 60.588 22.3719 60.2763 22.1419C59.9646 21.9115 59.7414 21.6476 59.6058 21.3495C59.4703 21.0513 59.4026 20.6993 59.4026 20.2928C59.4026 19.751 59.511 19.2564 59.7278 18.8095C59.9447 18.3627 60.2424 17.9832 60.6219 17.6715C61.001 17.3602 61.4514 17.1162 61.9732 16.9401C62.4946 16.7639 63.0602 16.6758 63.6697 16.6758C64.4689 16.6758 65.2175 16.7842 65.915 17.0006C66.6126 17.2175 67.2866 17.6101 67.9368 18.1793L66.6772 20.1297C66.0677 19.71 65.5256 19.4051 65.0516 19.2153C64.5777 19.0256 64.1169 18.9307 63.6701 18.9307C63.3181 18.9307 63.0199 19.0017 62.776 19.144C62.532 19.2863 62.4105 19.5131 62.4105 19.8248C62.4105 20.123 62.5424 20.3466 62.8067 20.4953C63.071 20.6443 63.562 20.8066 64.2799 20.9827C65.0385 21.186 65.6787 21.3889 66.2 21.5922C66.7218 21.7955 67.1451 22.0223 67.47 22.273C67.7953 22.5238 68.032 22.8116 68.1811 23.1364C68.3302 23.4617 68.4047 23.8476 68.4047 24.2948C68.4047 25.3511 68.0121 26.1914 67.2261 26.8144C66.4404 27.4374 65.3769 27.7491 64.036 27.7491L64.0356 27.7503ZM69.8469 29.1522C70.118 29.2471 70.3719 29.3149 70.6086 29.3555C70.8458 29.3962 71.0591 29.4165 71.2488 29.4165C71.6414 29.4165 71.9464 29.281 72.1632 29.0103C72.3801 28.7393 72.5762 28.2518 72.7524 27.5474L68.6885 16.8799H72.0412L74.5202 24.7636L76.6536 16.8799H79.7013L75.6375 29.2746C75.3529 30.1551 74.8451 30.8698 74.1136 31.4183C73.3822 31.9668 72.5152 32.2411 71.5127 32.2411C71.2416 32.2411 70.9674 32.2171 70.69 32.1697C70.4121 32.1223 70.1311 32.0445 69.8469 31.9361V29.1526V29.1522Z" fill="#4D4D4D"/>
<path d="M50.3203 27.7503C49.2229 27.7503 48.3934 27.4083 47.8313 26.7243C47.2693 26.0403 46.9883 25.0346 46.9883 23.7068V16.8795H50.2393V22.9953C50.2393 23.6455 50.3681 24.1433 50.6252 24.4889C50.8827 24.8341 51.2482 25.0071 51.7226 25.0071C52.1558 25.0071 52.576 24.8919 52.9822 24.6615C53.3883 24.4311 53.7475 24.0317 54.0592 23.4629V16.8795H57.3103V23.8894C57.3103 24.2143 57.3613 24.4415 57.4625 24.5702C57.5642 24.699 57.7435 24.7767 58.001 24.8038V27.547C57.6897 27.6148 57.4255 27.6587 57.2086 27.679C56.9918 27.6993 56.7957 27.7097 56.6195 27.7097C55.4543 27.7097 54.7906 27.2557 54.628 26.348L54.567 25.6979C54.0791 26.4022 53.4732 26.9204 52.7482 27.2525C52.0235 27.5845 51.2139 27.7503 50.3199 27.7503H50.3203ZM64.0356 27.7503C63.128 27.7503 62.2339 27.6048 61.3533 27.3135C60.4728 27.0221 59.7278 26.5987 59.1183 26.0435L60.2767 24.052C60.9268 24.4989 61.5602 24.8445 62.1765 25.088C62.7927 25.332 63.3855 25.4539 63.9543 25.4539C64.374 25.4539 64.6993 25.3794 64.9297 25.2303C65.1601 25.0812 65.2753 24.8648 65.2753 24.5802C65.2753 24.2956 65.1298 24.0688 64.8384 23.8994C64.547 23.73 64.036 23.5506 63.3041 23.3609C62.5862 23.1576 61.98 22.9614 61.4853 22.7717C60.991 22.582 60.588 22.3719 60.2763 22.1419C59.9646 21.9115 59.7414 21.6476 59.6058 21.3495C59.4703 21.0513 59.4026 20.6993 59.4026 20.2928C59.4026 19.751 59.511 19.2564 59.7278 18.8095C59.9447 18.3627 60.2424 17.9832 60.6219 17.6715C61.001 17.3602 61.4514 17.1162 61.9732 16.9401C62.4946 16.7639 63.0602 16.6758 63.6697 16.6758C64.4689 16.6758 65.2175 16.7842 65.915 17.0006C66.6126 17.2175 67.2866 17.6101 67.9368 18.1793L66.6772 20.1297C66.0677 19.71 65.5256 19.4051 65.0516 19.2153C64.5777 19.0256 64.1169 18.9307 63.6701 18.9307C63.3181 18.9307 63.0199 19.0017 62.776 19.144C62.532 19.2863 62.4105 19.5131 62.4105 19.8248C62.4105 20.123 62.5424 20.3466 62.8067 20.4953C63.071 20.6443 63.562 20.8066 64.2799 20.9827C65.0385 21.186 65.6787 21.3889 66.2 21.5922C66.7218 21.7955 67.1451 22.0223 67.47 22.273C67.7953 22.5238 68.032 22.8116 68.1811 23.1364C68.3302 23.4617 68.4047 23.8476 68.4047 24.2948C68.4047 25.3511 68.0121 26.1914 67.2261 26.8144C66.4404 27.4374 65.3769 27.7491 64.036 27.7491L64.0356 27.7503ZM69.8469 29.1522C70.118 29.2471 70.3719 29.3149 70.6086 29.3555C70.8458 29.3962 71.0591 29.4165 71.2488 29.4165C71.6414 29.4165 71.9464 29.281 72.1632 29.0103C72.3801 28.7393 72.5762 28.2518 72.7524 27.5474L68.6885 16.8799H72.0412L74.5202 24.7636L76.6536 16.8799H79.7013L75.6375 29.2746C75.3529 30.1551 74.8451 30.8698 74.1136 31.4183C73.3822 31.9668 72.5152 32.2411 71.5127 32.2411C71.2416 32.2411 70.9674 32.2171 70.69 32.1697C70.4121 32.1223 70.1311 32.0445 69.8469 31.9361V29.1526V29.1522Z" stroke="#4D4D4D" stroke-width="0.200125" stroke-miterlimit="22.9256"/>
<path d="M40.529 27.7916C39.7162 27.7916 39.0051 27.619 38.3956 27.2734C37.7861 26.9278 37.305 26.4435 36.9531 25.8205V27.5883H34.1289V6.5625H37.38V18.6683C37.7319 18.0588 38.2027 17.5812 38.7922 17.2357C39.3814 16.8901 40.0758 16.7175 40.875 16.7175C41.5522 16.7175 42.1752 16.863 42.7444 17.1543C43.3133 17.4457 43.8012 17.8419 44.2073 18.343C44.6135 18.8444 44.932 19.4368 45.1624 20.1208C45.3928 20.8048 45.508 21.5331 45.508 22.3052C45.508 23.0773 45.3828 23.7987 45.1321 24.4692C44.8814 25.1397 44.533 25.722 44.0858 26.2167C43.6385 26.711 43.1104 27.0972 42.5009 27.3751C41.8914 27.6529 41.2345 27.7916 40.5298 27.7916H40.529ZM39.6146 25.0484C39.994 25.0484 40.3392 24.9774 40.6509 24.8351C40.9627 24.6928 41.2301 24.4999 41.4533 24.2559C41.677 24.012 41.8531 23.7242 41.9819 23.3926C42.1107 23.0605 42.1748 22.6982 42.1748 22.3056C42.1748 21.9265 42.1138 21.5641 41.9919 21.2186C41.8699 20.873 41.7041 20.5716 41.494 20.3141C41.2839 20.0566 41.03 19.8537 40.7319 19.7046C40.4337 19.5556 40.1156 19.481 39.7768 19.481C39.2622 19.481 38.7914 19.6572 38.3645 20.0092C37.938 20.3615 37.6092 20.8016 37.3792 21.3298V23.5652C37.596 24.0256 37.9109 24.3879 38.3239 24.6522C38.7368 24.9164 39.1669 25.0484 39.6142 25.0484H39.6146Z" fill="#4D4D4D"/>
<path fill-rule="evenodd" clip-rule="evenodd" d="M28.8291 14.0079L48.6344 0L66.1237 14.3495L48.6288 4.14723L29.7033 15.7028H14.7578L28.8291 14.0079Z" fill="#4D4D4D"/>
<path fill-rule="evenodd" clip-rule="evenodd" d="M69.4828 15.7429H79.8861L66.2608 3.5941L50.6055 0.0078125L69.4828 15.7429Z" fill="#FF9D00"/>
</svg>
